:SAMPLES-PER-SECOND 30
:FRAME-RANGE 1-744
:FULLY-SPECIFIED
:DEGREES
373
root  -21.5901 38.726 97.9477 4.68196 46.6983 0.779678
RightUpLeg  -16.3218 -2.29034 -5.55505
RightLeg  14.062 -1.00132 -0.510225
RightFoot  -9.84948 -0.204907 10.5546
RightToes  -5.28216e-011 1.2921e-014 -6.02303e-014
Spine  -4.75302 1.10576 3.35037
Spine1  7.52768 2.43717 -6.33519
HEad  35.6625 -7.37404 2.39988
LeftShoulder1  1.07635 -1.07492 -18.2305
LeftArm  -5.4069 3.82599 -38.1142
LeftForeArm  1.5504 -60.6633 -20.454
LeftHand  0.040527 3.39908 -3.6078
RightShoulder  2.19778 5.15146 19.6448
RightArm  17.6027 31.7292 53.3722
RightForeArm  -8.3495 36.2858 8.71609
RightHand  -0.0253414 -5.0495 1.43895
LeftUpLeg  -7.06494 2.6214 0.0210953
LeftLeg  15.7718 10.5675 4.78768
LeftFoot  -14.0294 0.0458406 -1.63191
LeftToes  -9.4837e-011 -7.11147e-011 -1.07582e-011
374
root  -21.4125 38.698 98.3754 4.67099 45.6768 0.960312
RightUpLeg  -15.653 -1.75212 -5.41566
RightLeg  14.0836 0.0291447 -0.2631
RightFoot  -10.9711 -0.110264 10.9593
RightToes  -5.28216e-011 1.2921e-014 -6.02303e-014
Spine  -5.13535 0.784305 4.04151
Spine1  7.89295 1.85733 -5.54328
HEad  37.3552 -6.19907 1.67067
LeftShoulder1  1.1554 -1.3539 -18.4754
LeftArm  -3.93744 1.87301 -37.5728
LeftForeArm  -0.847119 -57.4764 -18.0179
LeftHand  0.0621292 2.9764 -3.90503
RightShoulder  2.21401 5.08224 20.0837
RightArm  18.1788 31.0076 53.8307
RightForeArm  -8.46673 35.0654 8.36167
RightHand  -0.0236396 -4.87809 0.851695
LeftUpLeg  -6.20352 1.05315 -0.109993
LeftLeg  16.3944 13.1061 5.89848
LeftFoot  -15.2382 -0.00557603 -2.84832
LeftToes  -9.4837e-011 -7.11147e-011 -1.07582e-011
375
root  -21.235 38.5727 98.7363 3.91783 45.0101 0.153259
RightUpLeg  -15.5188 -2.31155 -4.60915
RightLeg  15.3653 1.56749 0.256424
RightFoot  -12.9433 0.0754284 11.6647
RightToes  -5.28216e-011 1.2921e-014 -6.02303e-014
Spine  -4.69638 0.513367 5.38665
Spine1  7.58468 1.20205 -4.32029
HEad  38.3711 -5.42077 0.752578
LeftShoulder1  1.25643 -1.71704 -18.7135
LeftArm  -2.94919 0.00116388 -37.9756
LeftForeArm  -2.56931 -53.8861 -15.7372
LeftHand  0.120804 2.05301 -4.69153
RightShoulder  2.19639 5.00325 20.1241
RightArm  18.3728 30.2804 53.9513
RightForeArm  -8.2864 33.5466 7.92008
RightHand  -0.0229861 -4.51984 0.254881
LeftUpLeg  -6.76332 -0.889332 0.848749
LeftLeg  19.767 15.3958 6.72463
LeftFoot  -16.8285 -0.0794277 -3.76097
LeftToes  -9.4837e-011 -7.11147e-011 -1.07582e-011
376
root  -21.0595 38.4114 99.0273 2.91331 44.6151 -0.985199
RightUpLeg  -15.4184 -2.8628 -3.69752
RightLeg  16.7009 2.74035 0.712012
RightFoot  -14.5593 0.254942 12.561
RightToes  -5.28216e-011 1.2921e-014 -6.02303e-014
Spine  -3.83193 0.14486 6.8423
Spine1  7.19116 0.480649 -3.01076
HEad  38.1117 -4.98182 0.41976
LeftShoulder1  1.43493 -2.49832 -18.4019
LeftArm  -2.21762 -1.60648 -38.6037
LeftForeArm  -3.85185 -50.9641 -14.1861
LeftHand  0.160337 1.50948 -5.12625
RightShoulder  2.17531 4.90467 20.1876
RightArm  18.3215 29.9009 53.7727
RightForeArm  -8.32687 32.3395 7.59138
RightHand  -0.0240865 -4.19974 -0.121717
LeftUpLeg  -8.33955 -0.23527 2.0278
LeftLeg  24.0742 14.1194 7.13039
LeftFoot  -17.0492 -0.0496882 -3.04612
LeftToes  -9.4837e-011 -7.11147e-011 -1.07582e-011
377
root  -20.8736 38.2805 99.2559 2.49901 44.2192 -1.59404
RightUpLeg  -15.5414 -3.7926 -3.22356
RightLeg  17.8177 4.09995 1.26737
RightFoot  -15.4987 0.38673 13.5076
RightToes  -5.28216e-011 1.2921e-014 -6.02303e-014
Spine  -3.00975 -0.205339 7.60918
Spine1  6.93391 -0.18536 -1.642
HEad  37.3173 -4.76106 0.236228
LeftShoulder1  1.57738 -3.04847 -18.5137
LeftArm  -1.46941 -4.15847 -38.9446
LeftForeArm  -5.21733 -47.4817 -12.5981
LeftHand  0.241564 0.62195 -6.02803
RightShoulder  2.14801 4.73383 20.4251
RightArm  18.0256 29.9863 53.5095
RightForeArm  -7.76667 31.202 7.25986
RightHand  -0.028433 -3.84672 -0.591688
LeftUpLeg  -11.0565 0.508279 2.71539
LeftLeg  28.9919 12.2082 7.57122
LeftFoot  -16.966 -0.0701306 -3.49674
LeftToes  -9.4837e-011 -7.11147e-011 -1.07582e-011
378
root  -20.6936 38.2229 99.451 2.52806 43.3926 -1.53313
RightUpLeg  -15.6805 -2.86053 -3.30504
RightLeg  18.7681 4.07007 1.33092
RightFoot  -16.0379 0.458274 13.7797
RightToes  -5.28216e-011 1.2921e-014 -6.02303e-014
Spine  -1.68089 -0.42904 7.86329
Spine1  6.51738 -0.545956 -0.690106
HEad  36.5894 -4.57796 0.676584
LeftShoulder1  1.72769 -3.72567 -18.2426
LeftArm  -0.583032 -6.74814 -39.5363
LeftForeArm  -6.88177 -44.0739 -11.2833
LeftHand  0.242901 0.62391 -6.06365
RightShoulder  2.16622 4.63038 21.0438
RightArm  17.5227 30.2154 53.4246
RightForeArm  -7.09959 29.8407 6.87503
RightHand  -0.036092 -3.30951 -1.0448
LeftUpLeg  -13.9022 1.15082 2.99063
LeftLeg  32.7416 10.3015 7.41327
LeftFoot  -16.8829 -0.0824625 -3.79335
LeftToes  -9.4837e-011 -7.11147e-011 -1.07582e-011
379
root  -20.4926 38.2076 99.604 3.07408 42.4198 -1.04924
RightUpLeg  -15.9723 -2.13249 -3.7522
RightLeg  19.3686 4.18069 1.42165
RightFoot  -16.2227 0.475196 13.6828
RightToes  -5.28216e-011 1.2921e-014 -6.02303e-014
Spine  -0.548335 -0.636776 7.95373
Spine1  6.5421 -0.769054 -0.300538
HEad  35.8023 -4.48621 1.39407
LeftShoulder1  1.86704 -4.47839 -17.6102
LeftArm  -0.162441 -9.71078 -40.3008
LeftForeArm  -8.48734 -39.8455 -9.84839
LeftHand  0.275539 0.219885 -6.26877
RightShoulder  2.22743 4.71446 21.5566
RightArm  16.3551 30.5566 53.7771
RightForeArm  -5.67591 28.3056 6.42085
RightHand  -0.0530373 -2.61526 -1.66242
LeftUpLeg  -16.834 0.450057 3.14798
LeftLeg  34.5234 8.70205 6.74472
LeftFoot  -16.4363 -0.0908773 -4.25471
LeftToes  -9.4837e-011 -7.11147e-011 -1.07582e-011
